<?xml version="1.0" encoding="UTF-8" standalone="no"?><svg xmlns="http://www.w3.org/2000/svg" xmlns:xlink="http://www.w3.org/1999/xlink" contentScriptType="application/ecmascript" contentStyleType="text/css" height="184px" preserveAspectRatio="none" style="width:235px;height:184px;" version="1.1" viewBox="0 0 235 184" width="235px" zoomAndPan="magnify"><defs><filter height="300%" id="f12xyyv19rl5sf" width="300%" x="-1" y="-1"><feGaussianBlur result="blurOut" stdDeviation="2.0"/><feColorMatrix in="blurOut" result="blurOut2" type="matrix" values="0 0 0 0 0 0 0 0 0 0 0 0 0 0 0 0 0 0 .4 0"/><feOffset dx="4.0" dy="4.0" in="blurOut2" result="blurOut3"/><feBlend in="SourceGraphic" in2="blurOut3" mode="normal"/></filter></defs><g><text fill="#000000" font-family="sans-serif" font-size="18" lengthAdjust="spacingAndGlyphs" textLength="221" x="2" y="16.708">Classes - Class Diagram</text><!--MD5=[972bde5337b4335dd91fa5354c932445]
class Point--><rect codeLine="4" fill="#FEFECE" filter="url(#f12xyyv19rl5sf)" height="137.6328" id="Point" style="stroke: #A80036; stroke-width: 1.5;" width="141" x="42" y="27.9531"/><ellipse cx="94.25" cy="43.9531" fill="#ADD1B2" rx="11" ry="11" style="stroke: #A80036; stroke-width: 1.0;"/><path d="M96.5938,39.625 C95.6563,39.1875 95.0625,39.0469 94.1875,39.0469 C91.5625,39.0469 89.5625,41.125 89.5625,43.8438 L89.5625,44.9688 C89.5625,47.5469 91.6719,49.4375 94.5625,49.4375 C95.7813,49.4375 96.9375,49.1406 97.6875,48.5938 C98.2656,48.1875 98.5938,47.7344 98.5938,47.3438 C98.5938,46.8906 98.2031,46.5 97.7344,46.5 C97.5156,46.5 97.3125,46.5781 97.125,46.7656 C96.6719,47.25 96.6719,47.25 96.4844,47.3438 C96.0625,47.6094 95.375,47.7344 94.6094,47.7344 C92.5625,47.7344 91.2656,46.6406 91.2656,44.9375 L91.2656,43.8438 C91.2656,42.0625 92.5156,40.75 94.25,40.75 C94.8281,40.75 95.4375,40.9063 95.9063,41.1563 C96.3906,41.4375 96.5625,41.6563 96.6563,42.0625 C96.7188,42.4688 96.75,42.5938 96.8906,42.7188 C97.0313,42.8594 97.2656,42.9688 97.4844,42.9688 C97.75,42.9688 98.0156,42.8281 98.1875,42.6094 C98.2969,42.4531 98.3281,42.2656 98.3281,41.8438 L98.3281,40.4219 C98.3281,39.9844 98.3125,39.8594 98.2188,39.7031 C98.0625,39.4375 97.7813,39.2969 97.4844,39.2969 C97.1875,39.2969 96.9844,39.3906 96.7656,39.7031 L96.5938,39.625 Z "/><text fill="#000000" font-family="sans-serif" font-size="12" lengthAdjust="spacingAndGlyphs" textLength="28" x="114.75" y="48.1074">Point</text><line style="stroke: #A80036; stroke-width: 1.5;" x1="43" x2="182" y1="59.9531" y2="59.9531"/><text fill="#000000" font-family="sans-serif" font-size="11" lengthAdjust="spacingAndGlyphs" textLength="43" x="48" y="74.1636">-x: float</text><text fill="#000000" font-family="sans-serif" font-size="11" lengthAdjust="spacingAndGlyphs" textLength="43" x="48" y="86.9683">-y: float</text><line style="stroke: #A80036; stroke-width: 1.5;" x1="43" x2="182" y1="93.5625" y2="93.5625"/><text fill="#000000" font-family="sans-serif" font-size="11" lengthAdjust="spacingAndGlyphs" textLength="129" x="48" y="107.7729">+Point(x: float, y: float)</text><text fill="#000000" font-family="sans-serif" font-size="11" lengthAdjust="spacingAndGlyphs" textLength="113" x="48" y="120.5776">+setX(x: float): void</text><text fill="#000000" font-family="sans-serif" font-size="11" lengthAdjust="spacingAndGlyphs" textLength="112" x="48" y="133.3823">+setY(y: float): void</text><text fill="#000000" font-family="sans-serif" font-size="11" lengthAdjust="spacingAndGlyphs" textLength="76" x="48" y="146.187">+getX(): float</text><text fill="#000000" font-family="sans-serif" font-size="11" lengthAdjust="spacingAndGlyphs" textLength="71" x="48" y="158.9917">+getY():float</text><!--MD5=[07021240fad63455cc334493263cde18]
@startuml
title Classes - Class Diagram

skinparam classAttributeIconSize 0
class Point {
  -x: float
  -y: float
  +Point(x: float, y: float)
  +setX(x: float): void
  +setY(y: float): void
  +getX(): float
  +getY():float
}
@enduml

PlantUML version 1.2020.17beta5(Unknown compile time)
(GPL source distribution)
Java Runtime: Java(TM) SE Runtime Environment
JVM: Java HotSpot(TM) 64-Bit Server VM
Default Encoding: UTF-8
Language: en
Country: US
--></g></svg>